<svg xmlns="http://www.w3.org/2000/svg" viewBox="0 0 24 24"><g fill='#FFFFFF'><path d="M22 12c0-1.5-1.8-2.6-4.3-3.3.7-2.5.6-4.6-.7-5.4-1-.6-2.5-.1-4.1 1.2-.3.2-.6.5-.9.8-.3-.3-.6-.6-.9-.8C9.5 3.2 8 2.8 7 3.3c-1.3.8-1.4 2.9-.7 5.4C3.8 9.4 2 10.5 2 12s1.8 2.6 4.3 3.3c-.7 2.5-.6 4.6.7 5.4.3.2.6.3 1 .3.9 0 2-.5 3.1-1.5.3-.2.6-.5.9-.8.3.3.6.6.9.8 1.2 1 2.2 1.5 3.1 1.5.4 0 .7-.1 1-.3 1.3-.8 1.4-2.9.7-5.4 2.5-.7 4.3-1.8 4.3-3.3zm-8.5-6.7c1-.8 1.8-1.2 2.5-1.2.2 0 .4 0 .5.1.7.4.9 2 .3 4.3-.8-.2-1.6-.3-2.5-.4-.5-.7-1-1.4-1.6-2 .3-.3.6-.5.8-.8zm2.4 7.9c.2.5.4 1 .5 1.4-.5.1-1 .2-1.5.2.2-.3.3-.5.5-.8.2-.3.4-.6.5-.8zm-1.3.3c-.3.5-.6 1-.9 1.4-.5.1-1.1.1-1.7.1s-1.2 0-1.7-.1c-.3-.4-.6-.9-.9-1.4-.3-.5-.6-1-.8-1.5.2-.5.5-1 .8-1.5.3-.5.6-1 .9-1.4.5-.1 1.1-.1 1.7-.1s1.2 0 1.7.1c.3.5.6.9.9 1.4.3.5.6 1 .8 1.5-.2.5-.5 1-.8 1.5zM12 17.2c-.3-.4-.6-.8-1-1.2h2c-.4.4-.7.8-1 1.2zM8.5 14c.2.3.3.6.5.8-.5-.1-1-.1-1.5-.2.2-.5.3-.9.5-1.4.2.2.4.5.5.8zm-.4-3.2c-.2-.5-.4-1-.5-1.4.4-.1.9-.2 1.4-.2-.1.2-.3.5-.5.8-.1.3-.3.6-.4.8zm3.9-4c.3.4.6.8 1 1.2h-2c.4-.4.7-.8 1-1.2zm3.5 3.2c-.2-.3-.3-.6-.5-.8.5.1 1 .1 1.5.2-.2.5-.3.9-.5 1.4-.2-.2-.4-.5-.5-.8zm-8-5.8c.1-.1.3-.1.5-.1.6 0 1.5.4 2.5 1.2.3.2.6.5.8.8-.5.6-1.1 1.3-1.6 2-.8.1-1.7.2-2.5.4-.6-2.3-.4-3.9.3-4.3zM3 12c0-.9 1.3-1.8 3.6-2.4l.9 2.4c-.4.8-.7 1.6-.9 2.4C4.3 13.8 3 12.9 3 12zm7.5 6.7c-1.3 1-2.4 1.5-3 1.1-.7-.4-.9-2-.3-4.3.8.2 1.6.3 2.5.4.5.7 1 1.4 1.6 2-.3.3-.6.5-.8.8zm6 1.1c-.6.3-1.7-.1-3-1.1-.3-.2-.6-.5-.8-.8.5-.6 1.1-1.3 1.6-2 .9-.1 1.7-.2 2.5-.4.6 2.3.4 3.9-.3 4.3zm.9-5.4l-.9-2.4c.4-.8.7-1.6.9-2.4 2.2.6 3.6 1.5 3.6 2.4s-1.3 1.8-3.6 2.4z"></path><circle cx="12" cy="12" r="1"></circle></g></svg>
