
<svg xmlns="http://www.w3.org/2000/svg" viewBox="0 0 24 24"><g fill='#FFFFFF'><path d="M22 4H2c-.6 0-1 .4-1 1v14c0 .4.3.8.6.9.1.1.3.1.4.1h20c.6 0 1-.4 1-1V5c0-.6-.4-1-1-1zM8 5h8c.5 0 1 .5 1 1s-.5 1-1 1H8c-.5 0-1-.5-1-1s.5-1 1-1zM3 5c.6 0 1 .4 1 1s-.4 1-1 1-1-.4-1-1 .4-1 1-1zm19 13c0 .6-.4 1-1 1H3c-.6 0-1-.4-1-1V9c0-.6.4-1 1-1h18c.6 0 1 .4 1 1v9zM21 7c-.6 0-1-.4-1-1s.4-1 1-1 1 .4 1 1-.4 1-1 1zM10.5 12h-5c-.3 0-.5-.2-.5-.5s.2-.5.5-.5h5c.3 0 .5.2.5.5s-.2.5-.5.5zM10.5 14h-5c-.3 0-.5-.2-.5-.5s.2-.5.5-.5h5c.3 0 .5.2.5.5s-.2.5-.5.5zM10.5 16h-5c-.3 0-.5-.2-.5-.5s.2-.5.5-.5h5c.3 0 .5.2.5.5s-.2.5-.5.5z"></path><circle cx="16.5" cy="13.5" r="2.5"></circle></g></svg>
